<?xml version="1.0" encoding="UTF-8"?><svg id="uuid-208d60a5-8643-49f5-9dc3-65f60396ebe3" xmlns="http://www.w3.org/2000/svg" viewBox="0 0 600 8" preserveAspectRatio="none"><rect width="21.73" height="8" fill="#ed1c24"/><rect x="23.13" width="21.73" height="8" fill="#00a651"/><rect x="46.26" width="21.73" height="8" fill="#2e3192"/><rect x="69.39" width="21.73" height="8" fill="#00aeef"/><rect x="92.52" width="21.73" height="8" fill="#fff200"/><rect x="115.65" width="21.73" height="8" fill="#ec008c"/><rect x="138.79" width="21.73" height="8"/><rect x="161.92" width="21.73" height="8" fill="#fff"/><rect x="185.05" width="21.73" height="8" fill="#e6e7e8"/><rect x="208.18" width="21.73" height="8" fill="#d1d3d4"/><rect x="231.31" width="21.73" height="8" fill="#bcbec0"/><rect x="254.44" width="21.73" height="8" fill="#a7a9ac"/><rect x="277.57" width="21.73" height="8" fill="#939598"/><rect x="300.7" width="21.73" height="8" fill="#808285"/><rect x="323.83" width="21.73" height="8" fill="#6d6e71"/><rect x="346.96" width="21.73" height="8" fill="#58595b"/><rect x="370.09" width="21.73" height="8" fill="#414042"/><rect x="393.22" width="21.73" height="8" fill="#231f20"/><rect x="416.36" width="21.73" height="8" fill="#658d3c"/><rect x="439.49" width="21.73" height="8" fill="#007a61"/><rect x="462.62" width="21.73" height="8" fill="#184898"/><rect x="485.75" width="21.73" height="8" fill="#613393"/><rect x="508.88" width="21.73" height="8" fill="#a42067"/><rect x="532.01" width="21.73" height="8" fill="#c22032"/><rect x="555.14" width="21.73" height="8" fill="#bc4c27"/><rect x="578.27" width="21.73" height="8" fill="#f7b718"/></svg>